<svg height="64" viewBox="3 3 58 58" width="64" xmlns="http://www.w3.org/2000/svg"><path d="m0 0h64v64h-64z" fill="#fff"/><path d="m14.672015 45.532q-2.736 0-4.37-1.52-1.5959998-1.558-1.5959998-4.028 0-1.748.76-3.002.7979998-1.254 2.3939998-2.09 1.596-.874 4.066-1.33l3.154-.57q.912-.152 1.33-.608.418-.456.418-1.178v-.038q0-.684-.304-1.14-.304-.456-.836-.684-.532-.266-1.33-.266-1.14 0-1.9.38-.76.38-.95 1.368h-6.0419998q.342-2.09 1.5579998-3.382 1.254-1.33 3.192-1.9 1.938-.608 4.294-.608 2.774 0 4.636.836 1.9.798 2.85 2.47.95 1.634.95 4.218v12.54h-5.852v-4.56l.646.646q-.646 1.558-1.71 2.546-1.064.988-2.432 1.444-1.33.456-2.926.456zm2.242-4.446q.95 0 1.672-.418.76-.418 1.254-1.102.494-.722.722-1.558.266-.874.266-1.71v-2.394l.912 1.064q-.38.456-.874.684-.456.19-1.596.57l-2.128.532q-1.14.266-1.748.874-.57.57-.57 1.444 0 1.026.57 1.52.57.494 1.52.494zm11.36199 3.914v-19.532h6.27v19.532zm-.038-22.268v-4.864h6.346v4.864z"/><path d="m46.401991 45.494q-1.444 0-2.812-.494-1.368-.494-2.47-1.482-1.064-1.026-1.71-2.508l.304-.342v4.332h-2.888v-27.132h2.888v11.894l-.304-.342q.646-1.52 1.71-2.508 1.102-.988 2.47-1.444 1.368-.494 2.812-.494 2.508 0 4.408 1.254 1.9 1.254 2.964 3.534 1.102 2.242 1.102 5.396 0 1.9-.418 3.496-.38 1.596-1.14 2.888-.76 1.254-1.824 2.128-1.026.874-2.318 1.33-1.254.494-2.774.494zm-.57-2.432q1.178 0 2.128-.38.95-.418 1.672-1.14.76-.722 1.254-1.672.532-.988.76-2.204.266-1.216.266-2.508 0-2.204-.722-3.952-.684-1.748-2.052-2.774-1.368-1.026-3.306-1.026-1.254 0-2.28.38-.988.38-1.748 1.102-.76.684-1.254 1.672-.494.988-.76 2.166-.266 1.14-.266 2.47 0 2.166.684 3.952.722 1.786 2.128 2.85 1.406 1.064 3.496 1.064z"/></svg>